<svg width="653" height="315" viewBox="0 0 653 315" fill="none" xmlns="http://www.w3.org/2000/svg">
<g filter="url(#filter0_d_12473_7499)">
<g clip-path="url(#clip0_12473_7499)">
<path d="M568.416 185.189C595.201 185.189 616.914 152.463 616.914 112.094C616.914 71.7255 595.201 39 568.416 39C541.631 39 519.918 71.7255 519.918 112.094C519.918 152.463 541.631 185.189 568.416 185.189Z" fill="#231815"/>
<path d="M362.618 115.74C363.378 110.262 361.923 104.708 358.574 100.299C355.225 95.8904 350.256 92.9876 344.759 92.2293C350.258 92.9867 355.833 91.5376 360.26 88.2007C364.688 84.8637 367.604 79.9117 368.369 74.4331" stroke="#231815" stroke-width="2" stroke-linecap="round" stroke-linejoin="round"/>
<path d="M397.873 189.933C397.112 192.569 396.881 195.328 397.192 198.053C397.503 200.779 398.35 203.416 399.686 205.814C401.021 208.213 402.819 210.325 404.975 212.03C407.131 213.735 409.603 215 412.25 215.751C409.605 214.995 406.836 214.766 404.102 215.077C401.368 215.388 398.722 216.233 396.315 217.563C393.909 218.894 391.79 220.684 390.078 222.831C388.366 224.978 387.096 227.441 386.34 230.077" stroke="#231815" stroke-width="2" stroke-linecap="round" stroke-linejoin="round"/>
<path d="M346.564 111.649C347.158 111.592 347.756 111.683 348.305 111.915C348.854 112.147 349.337 112.513 349.708 112.978C350.079 113.443 350.328 113.993 350.432 114.578C350.536 115.163 350.491 115.765 350.302 116.329L344.407 141.797C344.26 142.657 343.801 143.433 343.118 143.979C342.435 144.524 341.575 144.802 340.701 144.758H298.513C297.947 144.79 297.382 144.687 296.865 144.457C296.347 144.226 295.893 143.876 295.54 143.435C295.186 142.994 294.944 142.475 294.833 141.921C294.722 141.368 294.746 140.796 294.903 140.253C296.862 131.689 298.848 123.12 300.861 114.546C301.016 113.699 301.477 112.938 302.157 112.407C302.837 111.876 303.689 111.612 304.551 111.665L346.564 111.649Z" fill="black"/>
<path d="M343.88 109.277H304.759C303.268 109.172 301.792 109.629 300.623 110.558C299.454 111.486 298.678 112.819 298.449 114.291C296.511 122.675 294.568 131.047 292.619 139.41C292.379 140.284 292.329 141.199 292.472 142.094C292.615 142.988 292.948 143.843 293.45 144.599C292.758 144.496 292.116 144.18 291.614 143.694C291.113 143.209 290.777 142.579 290.654 141.893C290.582 141.515 290.55 141.131 290.558 140.747V99.1056C290.497 98.5626 290.559 98.0127 290.741 97.4971C290.922 96.9815 291.219 96.5135 291.607 96.1278C291.996 95.7422 292.466 95.4489 292.985 95.2699C293.503 95.091 294.055 95.0309 294.6 95.0943H305.782C306.404 95.0785 307.021 95.2155 307.578 95.493C308.136 95.7706 308.616 96.1803 308.977 96.6861C309.903 97.864 310.878 99.0102 311.772 100.204C311.976 100.5 312.255 100.736 312.581 100.89C312.906 101.044 313.266 101.109 313.625 101.079H340.047C340.875 101.01 341.702 101.229 342.387 101.7C343.071 102.17 343.571 102.862 343.801 103.658C343.815 103.732 343.815 103.807 343.801 103.881L343.88 109.277Z" fill="black"/>
<path d="M463.528 208.302H481.227C481.733 208.245 482.245 208.316 482.716 208.51C483.187 208.703 483.601 209.012 483.92 209.407C484.238 209.803 484.451 210.272 484.539 210.772C484.627 211.272 484.587 211.785 484.422 212.265L479.438 233.786C479.316 234.524 478.92 235.19 478.328 235.65C477.736 236.11 476.992 236.331 476.243 236.269H440.684C440.207 236.295 439.731 236.207 439.294 236.012C438.858 235.817 438.475 235.521 438.177 235.149C437.878 234.777 437.673 234.34 437.579 233.873C437.484 233.406 437.503 232.923 437.633 232.465L442.665 210.753C442.798 210.024 443.199 209.37 443.79 208.919C444.38 208.469 445.119 208.254 445.86 208.318L463.528 208.302Z" fill="black"/>
<path d="M479.024 206.312H445.973C444.714 206.221 443.467 206.607 442.481 207.392C441.496 208.177 440.843 209.303 440.653 210.546C439.056 217.629 437.458 224.697 435.717 231.764C435.512 232.502 435.469 233.274 435.591 234.029C435.712 234.785 435.995 235.505 436.42 236.142C435.836 236.052 435.294 235.783 434.87 235.372C434.447 234.961 434.162 234.429 434.056 233.85C434.032 233.532 434.032 233.213 434.056 232.895V197.716C434.002 197.258 434.053 196.794 434.205 196.358C434.357 195.922 434.606 195.526 434.933 195.2C435.261 194.874 435.658 194.626 436.095 194.475C436.533 194.323 436.998 194.272 437.458 194.326H446.867C447.394 194.299 447.919 194.403 448.396 194.628C448.872 194.853 449.286 195.192 449.599 195.615C450.382 196.618 451.196 197.573 451.963 198.592C452.14 198.846 452.38 199.049 452.661 199.18C452.941 199.312 453.252 199.367 453.561 199.34H475.925C476.629 199.276 477.333 199.458 477.916 199.856C478.5 200.255 478.925 200.843 479.12 201.521C479.133 201.583 479.133 201.649 479.12 201.712L479.024 206.312Z" fill="black"/>
<path d="M190.064 157.492L207.316 153.544C207.796 153.383 208.31 153.346 208.809 153.435C209.309 153.524 209.777 153.737 210.172 154.054C210.567 154.372 210.875 154.783 211.068 155.25C211.261 155.717 211.333 156.226 211.277 156.728C211.277 164.082 211.277 171.441 211.277 178.806C211.332 179.55 211.108 180.288 210.647 180.876C210.187 181.464 209.523 181.861 208.786 181.989L174.025 189.948C173.565 190.084 173.08 190.108 172.609 190.018C172.138 189.928 171.696 189.725 171.32 189.429C170.944 189.132 170.645 188.75 170.448 188.314C170.252 187.878 170.164 187.401 170.191 186.924C170.191 179.496 170.191 172.067 170.191 164.639C170.158 163.914 170.39 163.202 170.846 162.636C171.302 162.07 171.95 161.69 172.667 161.567L190.064 157.492Z" fill="black"/>
<path d="M204.663 152.112L203.992 152.255L172.459 159.466C171.21 159.658 170.08 160.312 169.292 161.297C168.505 162.282 168.119 163.526 168.21 164.782C168.21 172.041 168.21 179.299 168.21 186.558C168.167 187.316 168.287 188.075 168.563 188.783C168.838 189.492 169.263 190.133 169.807 190.665C169.217 190.707 168.628 190.566 168.122 190.261C167.615 189.956 167.216 189.502 166.98 188.962C166.858 188.664 166.767 188.354 166.708 188.038C164.067 176.609 161.437 165.18 158.817 153.751C158.662 153.317 158.608 152.853 158.659 152.395C158.71 151.937 158.864 151.496 159.11 151.106C159.355 150.715 159.687 150.386 160.079 150.141C160.471 149.896 160.913 149.743 161.373 149.692C164.424 148.992 167.491 148.307 170.542 147.591C171.05 147.448 171.586 147.433 172.102 147.547C172.618 147.66 173.097 147.9 173.497 148.244C174.488 149.04 175.51 149.835 176.468 150.615C176.692 150.821 176.967 150.965 177.264 151.032C177.561 151.099 177.871 151.087 178.162 150.997L199.919 146.015C200.588 145.802 201.31 145.828 201.962 146.086C202.615 146.344 203.157 146.82 203.497 147.432C203.535 147.487 203.567 147.545 203.593 147.607C203.976 149.087 204.264 150.568 204.663 152.112Z" fill="black"/>
<path d="M97.2363 158.797C137.172 127.71 195.591 103.738 283.114 107.351" stroke="#231815" stroke-width="2" stroke-linecap="round" stroke-linejoin="round"/>
<path d="M117.747 237.941C141.996 217.566 173.657 202.078 224.312 193.992C299.535 181.989 373.129 205.834 407.666 214.43" stroke="#231815" stroke-width="2" stroke-linecap="round" stroke-linejoin="round"/>
<path d="M124.744 123.221C124.744 120.266 123.566 117.432 121.469 115.342C119.372 113.252 116.527 112.078 113.562 112.078C116.527 112.078 119.372 110.904 121.469 108.815C123.566 106.725 124.744 103.891 124.744 100.936C124.744 103.891 125.922 106.725 128.019 108.815C130.116 110.904 132.96 112.078 135.926 112.078C132.96 112.078 130.116 113.252 128.019 115.342C125.922 117.432 124.744 120.266 124.744 123.221Z" fill="#231815"/>
<path d="M568.48 219.364C568.48 216.409 567.302 213.575 565.205 211.485C563.108 209.396 560.264 208.222 557.298 208.222C560.264 208.222 563.108 207.048 565.205 204.958C567.302 202.869 568.48 200.035 568.48 197.08C568.48 200.035 569.658 202.869 571.755 204.958C573.852 207.048 576.696 208.222 579.662 208.222C576.696 208.222 573.852 209.396 571.755 211.485C569.658 213.575 568.48 216.409 568.48 219.364Z" fill="#231815"/>
<path d="M220.238 158.797C220.238 158.797 265.925 145.219 319.918 161.074C424.438 191.763 529.901 189.725 602.329 134.491" stroke="#231815" stroke-width="2" stroke-linecap="round" stroke-linejoin="round"/>
<path d="M349.344 92.8183C422.57 114.546 513.432 111.171 572.298 80.8003" stroke="#231815" stroke-width="2" stroke-linecap="round" stroke-linejoin="round"/>
<path d="M597.121 103.069C563.894 124.446 484.949 162.522 372.378 136.385" stroke="#231815" stroke-width="2" stroke-linecap="round" stroke-linejoin="round"/>
<path d="M83.4981 274.408C110.283 274.408 131.996 241.683 131.996 201.314C131.996 160.945 110.283 128.219 83.4981 128.219C56.7134 128.219 35 160.945 35 201.314C35 241.683 56.7134 274.408 83.4981 274.408Z" fill="#231815"/>
<mask id="mask0_12473_7499" style="mask-type:luminance" maskUnits="userSpaceOnUse" x="34" y="128" width="98" height="147">
<path d="M83.4825 274.408C110.267 274.408 131.981 241.683 131.981 201.314C131.981 160.945 110.267 128.219 83.4825 128.219C56.6977 128.219 34.9844 160.945 34.9844 201.314C34.9844 241.683 56.6977 274.408 83.4825 274.408Z" fill="white"/>
</mask>
<g mask="url(#mask0_12473_7499)">
<path d="M37.7637 225.684C71.1181 173.155 135.91 101.286 283.05 107.351" stroke="#3E3A39" stroke-width="2" stroke-linecap="round" stroke-linejoin="round"/>
<path d="M83.4824 274.44C113.578 236.237 146.597 206.423 224.312 194.023C299.536 182.021 373.13 205.866 407.666 214.462" stroke="#3E3A39" stroke-width="2" stroke-linecap="round" stroke-linejoin="round"/>
</g>
<mask id="mask1_12473_7499" style="mask-type:luminance" maskUnits="userSpaceOnUse" x="519" y="39" width="98" height="147">
<path d="M568.416 185.205C595.201 185.205 616.914 152.48 616.914 112.111C616.914 71.7417 595.201 39.0161 568.416 39.0161C541.631 39.0161 519.918 71.7417 519.918 112.111C519.918 152.48 541.631 185.205 568.416 185.205Z" fill="white"/>
</mask>
<g mask="url(#mask1_12473_7499)">
<path d="M224.312 159.179C224.312 159.179 265.957 145.22 319.951 161.074C431.436 193.801 544.007 189.216 616.403 122.744" stroke="#3E3A39" stroke-width="2" stroke-linecap="round" stroke-linejoin="round"/>
<path d="M349.344 92.8181C436.771 118.764 549.359 108.927 602.585 60.0435" stroke="#3E3A39" stroke-width="2" stroke-linecap="round" stroke-linejoin="round"/>
<path d="M614.694 90.2236C614.694 90.2236 524.071 171.595 372.379 136.385" stroke="#3E3A39" stroke-width="2" stroke-linecap="round" stroke-linejoin="round"/>
</g>
</g>
</g>
<defs>
<filter id="filter0_d_12473_7499" x="-211.902" y="-32.9512" width="1105.8" height="497.805" filterUnits="userSpaceOnUse" color-interpolation-filters="sRGB">
<feFlood flood-opacity="0" result="BackgroundImageFix"/>
<feColorMatrix in="SourceAlpha" type="matrix" values="0 0 0 0 0 0 0 0 0 0 0 0 0 0 0 0 0 0 127 0" result="hardAlpha"/>
<feOffset dy="0.951167"/>
<feGaussianBlur stdDeviation="0.951167"/>
<feComposite in2="hardAlpha" operator="out"/>
<feColorMatrix type="matrix" values="0 0 0 0 0.0784314 0 0 0 0 0.0823529 0 0 0 0 0.101961 0 0 0 0.05 0"/>
<feBlend mode="normal" in2="BackgroundImageFix" result="effect1_dropShadow_12473_7499"/>
<feBlend mode="normal" in="SourceGraphic" in2="effect1_dropShadow_12473_7499" result="shape"/>
</filter>
<clipPath id="clip0_12473_7499">
<rect width="583" height="237" fill="white" transform="translate(35 39)"/>
</clipPath>
</defs>
</svg>
