<svg width="578" height="270" viewBox="0 0 578 270" fill="none" xmlns="http://www.w3.org/2000/svg">
<g clip-path="url(#clip0_12679_6021)">
<path d="M70.6185 162.974C46.3679 147.175 43.9696 114.879 45.3274 97.0623C46.6852 79.2455 57.0023 61.6572 73.3217 54.3731C81.7478 50.5661 91.1512 49.7285 100.377 49.5508C130.325 48.9671 161.149 55.274 189.715 46.3275C208.001 40.6043 224.409 28.8406 243.393 26.3407C272.276 22.5337 298.785 40.6551 324.876 53.6243C377.552 79.8165 438.693 87.0752 488.984 117.607C498.552 123.419 507.841 130.298 514.034 139.574C527.434 159.764 522.396 189.243 504.668 205.74C486.94 222.237 459.098 225.701 436.7 216.45C425.711 211.907 415.775 204.623 404.176 201.983C378.644 196.159 354.52 213.798 330.409 224.001C290.207 241.018 243.482 237.566 202.569 222.338C161.657 207.11 125.731 180.981 92.2551 152.962C83.5117 145.652 93.0421 157.289 84.8316 165.208L70.6185 162.974Z" fill="#C7FDCC" stroke="#231815" stroke-width="1.81" stroke-miterlimit="10"/>
<path d="M156.294 259.283C156.295 258.154 156.075 257.035 155.644 255.991C155.213 254.948 154.58 253.999 153.782 253.2C152.984 252.401 152.037 251.767 150.993 251.334C149.95 250.902 148.832 250.679 147.703 250.679C148.832 250.679 149.95 250.456 150.993 250.024C152.037 249.591 152.984 248.957 153.782 248.158C154.58 247.359 155.213 246.411 155.644 245.367C156.075 244.323 156.295 243.204 156.294 242.075C156.294 243.205 156.516 244.324 156.949 245.368C157.381 246.412 158.015 247.36 158.814 248.159C159.613 248.958 160.561 249.592 161.605 250.024C162.649 250.457 163.768 250.679 164.898 250.679C163.768 250.679 162.649 250.902 161.605 251.334C160.561 251.766 159.613 252.4 158.814 253.199C158.015 253.998 157.381 254.947 156.949 255.99C156.516 257.034 156.294 258.153 156.294 259.283Z" fill="#231815"/>
<path d="M332.939 29.1363C332.936 26.8555 332.028 24.669 330.416 23.0562C328.803 21.4434 326.616 20.5359 324.335 20.5326C326.615 20.5326 328.801 19.6278 330.415 18.017C332.028 16.4062 332.936 14.2211 332.939 11.9414C332.939 14.2199 333.844 16.4051 335.456 18.0163C337.067 19.6274 339.252 20.5326 341.53 20.5326C339.251 20.5359 337.066 21.4438 335.455 23.057C333.844 24.6701 332.939 26.8566 332.939 29.1363Z" fill="#231815"/>
<path d="M304.558 199.784C438.386 158.741 537.374 94.4857 525.652 56.2662C513.931 18.0466 395.939 20.3357 262.111 61.3789C128.282 102.422 29.2945 166.677 41.0159 204.897C52.7373 243.116 170.729 240.827 304.558 199.784Z" fill="#C7FDCC" stroke="#231815" stroke-width="1.81" stroke-miterlimit="10"/>
<path d="M298.349 180.286C394.474 151.248 465.677 105.454 457.384 78.0035C449.092 50.5526 364.444 51.839 268.319 80.8768C172.194 109.915 100.991 155.708 109.283 183.159C117.576 210.61 202.223 209.323 298.349 180.286Z" fill="#C7FDCC" stroke="#231815" stroke-width="1.94552" stroke-miterlimit="10"/>
<path d="M283.41 173.816C306.012 173.816 324.335 155.493 324.335 132.89C324.335 110.288 306.012 91.9648 283.41 91.9648C260.807 91.9648 242.484 110.288 242.484 132.89C242.484 155.493 260.807 173.816 283.41 173.816Z" fill="#231815"/>
<path d="M124.138 173.371C135.316 173.371 144.378 164.309 144.378 153.131C144.378 141.952 135.316 132.89 124.138 132.89C112.959 132.89 103.897 141.952 103.897 153.131C103.897 164.309 112.959 173.371 124.138 173.371Z" fill="black" stroke="#231815" stroke-width="1.94" stroke-miterlimit="10"/>
<path d="M290.385 153.572C334.842 139.938 367.726 118.591 363.831 105.894C359.937 93.1966 320.741 93.9563 276.283 107.591C231.825 121.225 198.942 142.572 202.836 155.269C206.73 167.966 245.927 167.207 290.385 153.572Z" stroke="#231815" stroke-width="1.94" stroke-miterlimit="10"/>
<path d="M242.472 132.903C242.376 127.467 243.365 122.066 245.379 117.017C247.393 111.967 250.392 107.369 254.202 103.491C258.013 99.6125 262.558 96.5323 267.571 94.4297C272.585 92.327 277.967 91.2441 283.404 91.2441C288.84 91.2441 294.223 92.327 299.236 94.4297C304.25 96.5323 308.795 99.6125 312.605 103.491C316.415 107.369 319.415 111.967 321.429 117.017C323.443 122.066 324.431 127.467 324.336 132.903" fill="#231815"/>
<path d="M356.581 128.119C361.648 128.119 365.756 124.011 365.756 118.944C365.756 113.877 361.648 109.769 356.581 109.769C351.513 109.769 347.406 113.877 347.406 118.944C347.406 124.011 351.513 128.119 356.581 128.119Z" fill="#C7FDCC" stroke="#231815" stroke-width="1.94" stroke-miterlimit="10"/>
<path d="M231.939 46.2681V67.3335" stroke="#231815" stroke-width="1.81" stroke-miterlimit="10"/>
<path d="M242.472 56.8008H221.406" stroke="#231815" stroke-width="1.81" stroke-miterlimit="10"/>
<path d="M93.3643 65.8994V86.9649" stroke="#231815" stroke-width="1.81" stroke-miterlimit="10"/>
<path d="M103.897 76.4321H82.8188" stroke="#231815" stroke-width="1.81" stroke-miterlimit="10"/>
<path d="M134.264 10V31.0654" stroke="#231815" stroke-width="1.81" stroke-miterlimit="10"/>
<path d="M144.81 20.5327H123.731" stroke="#231815" stroke-width="1.81" stroke-miterlimit="10"/>
<path d="M490.486 135.974V157.04" stroke="#231815" stroke-width="1.81" stroke-miterlimit="10"/>
<path d="M501.031 146.507H479.953" stroke="#231815" stroke-width="1.81" stroke-miterlimit="10"/>
<path d="M479.953 178.777V199.843" stroke="#231815" stroke-width="1.81" stroke-miterlimit="10"/>
<path d="M490.486 189.31H469.42" stroke="#231815" stroke-width="1.81" stroke-miterlimit="10"/>
<path d="M412.417 225.134V254.765" stroke="#231815" stroke-width="2.54" stroke-miterlimit="10"/>
<path d="M427.226 239.943H397.607" stroke="#231815" stroke-width="2.54" stroke-miterlimit="10"/>
<path d="M449.078 107.282C461.245 107.282 471.108 97.4188 471.108 85.2521C471.108 73.0853 461.245 63.2222 449.078 63.2222C436.911 63.2222 427.048 73.0853 427.048 85.2521C427.048 97.4188 436.911 107.282 449.078 107.282Z" fill="#C7FDCC" stroke="#231815" stroke-width="1.94" stroke-miterlimit="10"/>
<path d="M490.258 83.1452C490.258 88.2212 470.639 92.244 446.439 92.244C422.239 92.244 402.633 88.1704 402.633 83.1452C402.633 78.1199 422.252 74.0464 446.439 74.0464C470.626 74.0464 490.258 78.0692 490.258 83.1452Z" stroke="#231815" stroke-width="1.94" stroke-linecap="round" stroke-linejoin="round" stroke-dasharray="41.09 7.4"/>
<path d="M480.562 83.1455C480.562 85.6836 465.334 87.752 446.439 87.752C427.543 87.752 412.328 85.6836 412.328 83.1455C412.328 80.6075 427.556 78.5391 446.439 78.5391C465.321 78.5391 480.562 80.6075 480.562 83.1455Z" stroke="#231815" stroke-width="1.94" stroke-linecap="round" stroke-linejoin="round" stroke-dasharray="49.25 5.92"/>
<path d="M427.036 85.252C427.036 79.4093 429.357 73.8059 433.488 69.6745C437.62 65.5431 443.223 63.2222 449.066 63.2222C454.908 63.2222 460.511 65.5431 464.643 69.6745C468.774 73.8059 471.095 79.4093 471.095 85.252" fill="#C7FDCC"/>
<path d="M427.036 85.252C427.036 79.4093 429.357 73.8059 433.488 69.6745C437.62 65.5431 443.223 63.2222 449.066 63.2222C454.908 63.2222 460.511 65.5431 464.643 69.6745C468.774 73.8059 471.095 79.4093 471.095 85.252" stroke="#231815" stroke-width="1.94" stroke-miterlimit="10"/>
<path d="M360.933 65.8613L338.409 82.5995" stroke="#231815" stroke-width="1.94" stroke-miterlimit="10"/>
<path d="M384.626 138.613H356.581" stroke="#231815" stroke-width="1.94" stroke-miterlimit="10"/>
<path d="M169.517 133.322L197.562 132.472" stroke="#231815" stroke-width="1.94" stroke-miterlimit="10"/>
<path d="M194.25 193.485L217.029 177.102" stroke="#231815" stroke-width="1.94" stroke-miterlimit="10"/>
<path d="M463.354 52.651L471.095 56.8007L483.785 42.4355" fill="#C7FDCC"/>
<path d="M463.354 52.651L471.095 56.8007L483.785 42.4355" stroke="#231815" stroke-width="1.94" stroke-miterlimit="10"/>
</g>
<g clip-path="url(#clip1_12679_6021)">
<path d="M292.121 93.7544C296.828 93.7505 301.511 94.436 306.02 95.789C298.988 91.157 290.705 88.7896 282.287 89.0052C273.869 89.2208 265.719 92.009 258.932 96.9949C252.146 101.981 247.049 108.925 244.327 116.894C241.605 124.863 241.389 133.474 243.707 141.57C243.842 128.827 249.004 116.652 258.071 107.697C267.139 98.7412 279.376 93.7302 292.121 93.7544Z" fill="#C7FDCC" stroke="#231815" stroke-width="2" stroke-linecap="round" stroke-linejoin="round"/>
<path d="M283.397 171.48C292.27 171.479 300.905 168.616 308.021 163.315C315.136 158.015 320.352 150.56 322.893 142.059C325.434 133.558 325.164 124.464 322.125 116.128C319.085 107.792 313.437 100.659 306.021 95.7892C298.84 93.6309 291.255 93.1708 283.866 94.4455C276.477 95.7202 269.485 98.6947 263.443 103.134C257.4 107.574 252.472 113.357 249.047 120.027C245.622 126.697 243.794 134.072 243.708 141.57C246.17 150.194 251.376 157.78 258.539 163.178C265.701 168.575 274.429 171.49 283.397 171.48Z" fill="#231815" stroke="#231815" stroke-width="2" stroke-linecap="round" stroke-linejoin="round"/>
<path d="M269.332 111.367C270.238 113.222 271.647 114.786 273.399 115.879C275.15 116.973 277.174 117.553 279.239 117.553C281.303 117.553 283.327 116.973 285.078 115.879C286.829 114.786 288.239 113.222 289.145 111.367" stroke="#C7FDCC" stroke-width="2" stroke-linecap="round" stroke-linejoin="round"/>
<path d="M295.122 111.367C296.03 113.219 297.439 114.779 299.189 115.87C300.939 116.961 302.96 117.54 305.022 117.54C307.084 117.54 309.106 116.961 310.856 115.87C312.606 114.779 314.015 113.219 314.922 111.367" stroke="#C7FDCC" stroke-width="2" stroke-linecap="round" stroke-linejoin="round"/>
<path d="M285.165 123.588C285.802 124.89 286.791 125.987 288.021 126.754C289.251 127.522 290.671 127.928 292.121 127.928C293.57 127.928 294.99 127.522 296.22 126.754C297.45 125.987 298.44 124.89 299.077 123.588" stroke="#C7FDCC" stroke-width="2" stroke-linecap="round" stroke-linejoin="round"/>
</g>
<defs>
<clipPath id="clip0_12679_6021">
<rect width="500" height="249.27" fill="white" transform="translate(39 10)"/>
</clipPath>
<clipPath id="clip1_12679_6021">
<rect width="85" height="85" fill="white" transform="translate(240.91 87.752)"/>
</clipPath>
</defs>
</svg>
