<svg width="653" height="267" viewBox="0 0 653 267" fill="none" xmlns="http://www.w3.org/2000/svg">
<g filter="url(#filter0_d_12473_7489)">
<g clip-path="url(#clip0_12473_7489)">
<g clip-path="url(#clip1_12473_7489)">
<path d="M353.127 4.15674H85.6572V229.095H353.127V4.15674Z" fill="#CEC7FD" stroke="#231815" stroke-width="2" stroke-linecap="round" stroke-linejoin="round"/>
<path d="M353.127 4.15674H85.6572V32.317H353.127V4.15674Z" fill="#CEC7FD" stroke="#231815" stroke-width="2" stroke-linecap="round" stroke-linejoin="round"/>
<path d="M97.8686 25.1956C101.171 25.1956 103.848 22.5177 103.848 19.2142C103.848 15.9108 101.171 13.2329 97.8686 13.2329C94.5665 13.2329 91.8896 15.9108 91.8896 19.2142C91.8896 22.5177 94.5665 25.1956 97.8686 25.1956Z" fill="#CEC7FD" stroke="#231815" stroke-width="2" stroke-linecap="round" stroke-linejoin="round"/>
<path d="M115.127 25.1956C118.429 25.1956 121.106 22.5177 121.106 19.2142C121.106 15.9108 118.429 13.2329 115.127 13.2329C111.825 13.2329 109.148 15.9108 109.148 19.2142C109.148 22.5177 111.825 25.1956 115.127 25.1956Z" fill="#231815" stroke="#231815" stroke-width="2" stroke-linecap="round" stroke-linejoin="round"/>
<path d="M132.376 25.1956C135.678 25.1956 138.355 22.5177 138.355 19.2142C138.355 15.9108 135.678 13.2329 132.376 13.2329C129.074 13.2329 126.397 15.9108 126.397 19.2142C126.397 22.5177 129.074 25.1956 132.376 25.1956Z" fill="#CEC7FD" stroke="#231815" stroke-width="2" stroke-linecap="round" stroke-linejoin="round"/>
<path d="M556.104 -10.0952H470.735C464.465 -10.0952 459.383 -5.01078 459.383 1.26119V161.753C459.383 168.025 464.465 173.109 470.735 173.109H556.104C562.374 173.109 567.456 168.025 567.456 161.753V1.26119C567.456 -5.01078 562.374 -10.0952 556.104 -10.0952Z" fill="#CEC7FD" stroke="#231815" stroke-width="2" stroke-linecap="round" stroke-linejoin="round"/>
<path d="M470.735 -10.0952H556.104C559.115 -10.0952 562.002 -8.89874 564.131 -6.769C566.26 -4.63926 567.456 -1.75072 567.456 1.26119V17.0516H459.383V1.26119C459.383 -1.75072 460.579 -4.63926 462.708 -6.769C464.837 -8.89874 467.724 -10.0952 470.735 -10.0952Z" fill="#CEC7FD" stroke="#231815" stroke-width="2" stroke-linecap="round" stroke-linejoin="round"/>
<path d="M513.42 163.309C518.67 163.309 522.926 159.051 522.926 153.799C522.926 148.547 518.67 144.289 513.42 144.289C508.169 144.289 503.913 148.547 503.913 153.799C503.913 159.051 508.169 163.309 513.42 163.309Z" fill="#231815"/>
<path d="M471.367 3.47852H483.949" stroke="#231815" stroke-width="2" stroke-linecap="round" stroke-linejoin="round"/>
<path d="M477.365 10.8802L478.604 9.55907L472.065 3.47819L478.604 -2.59364L477.365 -3.92383L469.405 3.47819L477.365 10.8802Z" fill="#231815"/>
<path d="M594.719 142.433C594.719 140.513 593.956 138.672 592.599 137.315C591.242 135.957 589.402 135.194 587.482 135.194C589.402 135.194 591.242 134.432 592.599 133.074C593.956 131.716 594.719 129.875 594.719 127.955C594.719 129.875 595.481 131.716 596.838 133.074C598.195 134.432 600.036 135.194 601.955 135.194C600.036 135.194 598.195 135.957 596.838 137.315C595.481 138.672 594.719 140.513 594.719 142.433Z" fill="#231815"/>
<path d="M204.268 67.6082C204.268 65.6882 203.506 63.847 202.149 62.4894C200.792 61.1318 198.951 60.369 197.032 60.369C198.951 60.369 200.792 59.6064 202.149 58.2488C203.506 56.8912 204.268 55.0498 204.268 53.1299C204.268 55.0498 205.031 56.8912 206.388 58.2488C207.745 59.6064 209.586 60.369 211.505 60.369C209.586 60.369 207.745 61.1318 206.388 62.4894C205.031 63.847 204.268 65.6882 204.268 67.6082Z" fill="#231815"/>
<path d="M308.362 199.469V214.49" stroke="#231815" stroke-width="1.81" stroke-miterlimit="10"/>
<path d="M315.87 206.979H300.854" stroke="#231815" stroke-width="1.81" stroke-miterlimit="10"/>
<path d="M476.678 196.419V217.54" stroke="#231815" stroke-width="2.54" stroke-miterlimit="10"/>
<path d="M487.233 206.979H466.121" stroke="#231815" stroke-width="2.54" stroke-miterlimit="10"/>
<path d="M117.009 90.1396V111.26" stroke="#231815" stroke-width="2.54" stroke-miterlimit="10"/>
<path d="M127.565 100.7H106.453" stroke="#231815" stroke-width="2.54" stroke-miterlimit="10"/>
<path d="M196.001 108.962L257.609 99.8857L334.412 167.174L227.931 182.864" fill="#CEC7FD"/>
<path d="M196.001 108.962L257.609 99.8857L334.412 167.174L227.931 182.864" stroke="#231815" stroke-width="2" stroke-linecap="round" stroke-linejoin="round"/>
<path d="M294.758 94.4111L307.231 92.5742L334.413 167.174L277.554 175.553L294.758 94.4111Z" fill="#231815"/>
<path d="M286.564 86.3299L279.608 39.0855C278.703 33.1675 273.583 29.0322 268.084 29.8375C262.593 30.6519 258.849 36.0994 259.717 42.0174L270.445 114.879L273.556 136.009L312.388 160.513L349.646 151.69L355.353 120.408L319.615 70.8836" fill="#CEC7FD"/>
<path d="M286.564 86.3299L279.608 39.0855C278.703 33.1675 273.583 29.0322 268.084 29.8375C262.593 30.6519 258.849 36.0994 259.717 42.0174L270.445 114.879L273.556 136.009L312.388 160.513L349.646 151.69L355.353 120.408L319.615 70.8836" stroke="#231815" stroke-width="2" stroke-linecap="round" stroke-linejoin="round"/>
<path d="M307.983 83.1811L299.498 25.5214C299.071 22.685 297.54 20.133 295.238 18.4223C292.937 16.7116 290.053 15.9815 287.215 16.3911C284.378 16.8161 281.824 18.3472 280.113 20.6498C278.401 22.9524 277.67 25.8392 278.079 28.6794L286.564 86.3301" fill="#CEC7FD"/>
<path d="M307.983 83.1811L299.498 25.5214C299.071 22.685 297.54 20.133 295.238 18.4223C292.937 16.7116 290.053 15.9815 287.215 16.3911C284.378 16.8161 281.824 18.3472 280.113 20.6498C278.401 22.9524 277.67 25.8392 278.079 28.6794L286.564 86.3301" stroke="#231815" stroke-width="2" stroke-linecap="round" stroke-linejoin="round"/>
<path d="M332.558 105.722L321.84 32.8691C321.464 30.0631 319.991 27.5204 317.745 25.7988C315.498 24.0771 312.661 23.3167 309.855 23.6843C307.061 24.1396 304.562 25.6857 302.906 27.983C301.251 30.2803 300.575 33.141 301.026 35.9366L307.982 83.181" fill="#CEC7FD"/>
<path d="M332.558 105.722L321.84 32.8691C321.464 30.0631 319.991 27.5204 317.745 25.7988C315.498 24.0771 312.661 23.3167 309.855 23.6843C307.061 24.1396 304.562 25.6857 302.906 27.983C301.251 30.2803 300.575 33.141 301.026 35.9366L307.982 83.181" stroke="#231815" stroke-width="2" stroke-linecap="round" stroke-linejoin="round"/>
<path d="M352.114 98.365L343.747 41.5286C342.843 35.6106 337.65 31.4753 332.07 32.2988C326.498 33.1222 322.681 38.633 323.549 44.4967L332.594 105.722" fill="#231815"/>
<path d="M355.596 138.253C350.242 178.421 314.612 176.457 303.604 169.2C296.973 164.829 291.024 159.502 285.948 153.392L243.625 102.365C238.93 96.7002 239.382 88.5653 244.638 84.1947C249.902 79.8331 257.98 80.8827 262.728 86.5473L282.71 111.242C282.71 111.242 303.288 110.88 306.037 136.081" fill="#CEC7FD"/>
<path d="M355.596 138.253C350.242 178.421 314.612 176.457 303.604 169.2C296.973 164.829 291.024 159.502 285.948 153.392L243.625 102.365C238.93 96.7002 239.382 88.5653 244.638 84.1947C249.902 79.8331 257.98 80.8827 262.728 86.5473L282.71 111.242C282.71 111.242 303.288 110.88 306.037 136.081" stroke="#231815" stroke-width="2" stroke-linecap="round" stroke-linejoin="round"/>
<path d="M336.692 101.858L336.846 102.971L321.623 84.6017L319.253 81.7514C314.73 76.3221 307.051 75.3267 302.021 79.4982C296.992 83.6698 296.594 91.4428 301.054 96.854L313.419 111.613L339.152 142.379C342.752 146.46 347.038 149.877 351.816 152.478C353.708 147.938 354.971 143.162 355.57 138.28L336.692 101.858Z" fill="#231815"/>
<path d="M482.647 71.1101L428.05 79.1454L422.442 40.0903L342.101 61.6268L347.257 99.7589L329.691 78.5573C325.168 73.128 317.489 72.1326 312.505 76.3041C307.476 80.4757 307.078 88.2487 311.537 93.6599L349.636 139.14C354.484 144.985 372.982 167.445 412.953 159.699L480.377 150.098" fill="#CEC7FD"/>
<path d="M482.647 71.1101L428.05 79.1454L422.442 40.0903L342.101 61.6268L347.257 99.7589L329.691 78.5573C325.168 73.128 317.489 72.1326 312.505 76.3041C307.476 80.4757 307.078 88.2487 311.537 93.6599L349.636 139.14C354.484 144.985 372.982 167.445 412.953 159.699L480.377 150.098" stroke="#231815" stroke-width="2" stroke-linecap="round" stroke-linejoin="round"/>
<path d="M363.865 74.9468L355.724 19.8478C354.819 13.9298 349.7 9.78543 344.2 10.5908C338.71 11.4052 334.965 16.8616 335.833 22.7706L346.561 95.6326" fill="#CEC7FD"/>
<path d="M363.865 74.9468L355.724 19.8478C354.819 13.9298 349.7 9.78543 344.2 10.5908C338.71 11.4052 334.965 16.8616 335.833 22.7706L346.561 95.6326" stroke="#231815" stroke-width="2" stroke-linecap="round" stroke-linejoin="round"/>
<path d="M385.284 71.7889L375.642 6.28365C375.217 3.44567 373.686 0.891373 371.385 -0.821168C369.083 -2.53371 366.197 -3.26511 363.358 -2.85563C360.521 -2.43064 357.968 -0.899539 356.256 1.40307C354.544 3.70567 353.813 6.5924 354.222 9.43266L363.865 74.947" fill="#CEC7FD"/>
<path d="M385.284 71.7889L375.642 6.28365C375.217 3.44567 373.686 0.891373 371.385 -0.821168C369.083 -2.53371 366.197 -3.26511 363.358 -2.85563C360.521 -2.43064 357.968 -0.899539 356.256 1.40307C354.544 3.70567 353.813 6.5924 354.222 9.43266L363.865 74.947" stroke="#231815" stroke-width="2" stroke-linecap="round" stroke-linejoin="round"/>
<path d="M406.088 68.7301L397.947 13.6222C397.574 10.8157 396.101 8.2725 393.854 6.55183C391.606 4.83116 388.767 4.07378 385.962 4.44645C383.169 4.89961 380.67 6.44399 379.014 8.73983C377.359 11.0357 376.682 13.8951 377.134 16.6897L385.275 71.7887" fill="#CEC7FD"/>
<path d="M406.088 68.7301L397.947 13.6222C397.574 10.8157 396.101 8.2725 393.854 6.55183C391.606 4.83116 388.767 4.07378 385.962 4.44645C383.169 4.89961 380.67 6.44399 379.014 8.73983C377.359 11.0357 376.682 13.8951 377.134 16.6897L385.275 71.7887" stroke="#231815" stroke-width="2" stroke-linecap="round" stroke-linejoin="round"/>
<path d="M428.05 79.1723L419.909 22.5169C419.005 16.5989 413.813 12.4636 408.232 13.2871C402.66 14.1105 398.843 19.567 399.711 25.485L406.115 68.9198" fill="#CEC7FD"/>
<path d="M428.05 79.1723L419.909 22.5169C419.005 16.5989 413.813 12.4636 408.232 13.2871C402.66 14.1105 398.843 19.567 399.711 25.485L406.115 68.9198" stroke="#231815" stroke-width="2" stroke-linecap="round" stroke-linejoin="round"/>
<path d="M405.816 82.4301L482.647 71.1099" stroke="#231815" stroke-width="2" stroke-linecap="round" stroke-linejoin="round"/>
<path d="M555.2 154.423C551.459 154.421 547.738 154.967 544.155 156.043C549.737 152.377 556.307 150.505 562.982 150.68C569.658 150.855 576.12 153.067 581.503 157.021C586.886 160.974 590.931 166.479 593.098 172.798C595.265 179.117 595.448 185.948 593.624 192.374C593.493 182.265 589.388 172.614 582.196 165.511C575.004 158.408 565.306 154.425 555.2 154.423Z" fill="#CEC7FD" stroke="#231815" stroke-width="2" stroke-linecap="round" stroke-linejoin="round"/>
<path d="M562.156 216.191C555.116 216.185 548.266 213.91 542.621 209.703C536.976 205.496 532.836 199.581 530.816 192.836C528.796 186.09 529.002 178.872 531.405 172.253C533.808 165.634 538.279 159.965 544.156 156.088C549.854 154.379 555.871 154.016 561.733 155.029C567.596 156.042 573.143 158.402 577.938 161.924C582.734 165.446 586.647 170.033 589.369 175.325C592.091 180.617 593.547 186.469 593.624 192.42C591.671 199.263 587.544 205.285 581.867 209.574C576.189 213.863 569.27 216.185 562.156 216.191Z" fill="#231815" stroke="#231815" stroke-width="2" stroke-linecap="round" stroke-linejoin="round"/>
<path d="M573.317 168.422C572.595 169.894 571.475 171.135 570.084 172.002C568.693 172.87 567.087 173.329 565.447 173.329C563.808 173.329 562.202 172.87 560.811 172.002C559.42 171.135 558.3 169.894 557.578 168.422" stroke="#CEC7FD" stroke-width="2" stroke-linecap="round" stroke-linejoin="round"/>
<path d="M552.821 168.422C552.099 169.894 550.979 171.135 549.588 172.002C548.197 172.87 546.591 173.329 544.951 173.329C543.312 173.329 541.706 172.87 540.315 172.002C538.924 171.135 537.804 169.894 537.082 168.422" stroke="#CEC7FD" stroke-width="2" stroke-linecap="round" stroke-linejoin="round"/>
<path d="M560.726 178.132C560.221 179.167 559.434 180.04 558.457 180.65C557.48 181.261 556.352 181.584 555.2 181.584C554.048 181.584 552.919 181.261 551.942 180.65C550.965 180.04 550.178 179.167 549.673 178.132" stroke="#CEC7FD" stroke-width="2" stroke-linecap="round" stroke-linejoin="round"/>
<path d="M71.4381 194.094H120.165L153.778 206.952L141.395 194.094H147.328C152.244 194.094 156.958 192.14 160.434 188.663C163.909 185.186 165.862 180.47 165.862 175.553V153.708C165.862 148.79 163.91 144.073 160.434 140.595C156.959 137.116 152.244 135.161 147.328 135.158H71.4381C69.0035 135.158 66.5927 135.638 64.3434 136.57C62.0942 137.503 60.0506 138.869 58.3295 140.592C56.6084 142.315 55.2434 144.36 54.3125 146.61C53.3817 148.861 52.9031 151.273 52.9043 153.708V175.553C52.9043 180.47 54.857 185.186 58.3328 188.663C61.8086 192.14 66.5226 194.094 71.4381 194.094Z" fill="#CEC7FD" stroke="#231815" stroke-width="2" stroke-linecap="round" stroke-linejoin="round"/>
<path d="M129.727 172.874C133.668 172.874 136.863 169.677 136.863 165.734C136.863 161.791 133.668 158.595 129.727 158.595C125.785 158.595 122.59 161.791 122.59 165.734C122.59 169.677 125.785 172.874 129.727 172.874Z" fill="black"/>
<path d="M109.384 172.874C113.325 172.874 116.521 169.677 116.521 165.734C116.521 161.791 113.325 158.595 109.384 158.595C105.442 158.595 102.247 161.791 102.247 165.734C102.247 169.677 105.442 172.874 109.384 172.874Z" fill="black"/>
<path d="M89.0401 172.874C92.9816 172.874 96.1768 169.677 96.1768 165.734C96.1768 161.791 92.9816 158.595 89.0401 158.595C85.0986 158.595 81.9033 161.791 81.9033 165.734C81.9033 169.677 85.0986 172.874 89.0401 172.874Z" fill="black"/>
<path d="M583.809 46.1528H535.381C527.538 46.1528 521.18 52.5134 521.18 60.3596C521.18 68.2059 527.538 74.5665 535.381 74.5665H583.809C591.652 74.5665 598.011 68.2059 598.011 60.3596C598.011 52.5134 591.652 46.1528 583.809 46.1528Z" fill="#231815"/>
<path d="M535.092 55.8262H573.037" stroke="#CEC7FD" stroke-width="2" stroke-linecap="round" stroke-linejoin="round"/>
<path d="M535.092 64.9023H586.731" stroke="#CEC7FD" stroke-width="2" stroke-linecap="round" stroke-linejoin="round"/>
</g>
</g>
</g>
<defs>
<filter id="filter0_d_12473_7489" x="-200.902" y="-0.951167" width="1105.8" height="497.805" filterUnits="userSpaceOnUse" color-interpolation-filters="sRGB">
<feFlood flood-opacity="0" result="BackgroundImageFix"/>
<feColorMatrix in="SourceAlpha" type="matrix" values="0 0 0 0 0 0 0 0 0 0 0 0 0 0 0 0 0 0 127 0" result="hardAlpha"/>
<feOffset dy="0.951167"/>
<feGaussianBlur stdDeviation="0.951167"/>
<feComposite in2="hardAlpha" operator="out"/>
<feColorMatrix type="matrix" values="0 0 0 0 0.0784314 0 0 0 0 0.0823529 0 0 0 0 0.101961 0 0 0 0.05 0"/>
<feBlend mode="normal" in2="BackgroundImageFix" result="effect1_dropShadow_12473_7489"/>
<feBlend mode="normal" in="SourceGraphic" in2="effect1_dropShadow_12473_7489" result="shape"/>
</filter>
<clipPath id="clip0_12473_7489">
<path d="M-199 22.828C-199 10.2204 -188.78 0 -176.172 0H880.172C892.78 0 903 10.2204 903 22.828V471.172C903 483.78 892.78 494 880.172 494H-176.172C-188.78 494 -199 483.78 -199 471.172V22.828Z" fill="white"/>
</clipPath>
<clipPath id="clip1_12473_7489">
<rect width="550" height="241" fill="white" transform="translate(52 -11)"/>
</clipPath>
</defs>
</svg>
