<svg width="653" height="315" viewBox="0 0 653 315" fill="none" xmlns="http://www.w3.org/2000/svg">
<g filter="url(#filter0_d_12473_7496)">
<path d="M302.029 282.048C302.029 279.825 301.149 277.694 299.582 276.123C298.015 274.552 295.889 273.669 293.673 273.669C295.889 273.669 298.015 272.786 299.582 271.215C301.149 269.644 302.029 267.513 302.029 265.291C302.031 266.393 302.25 267.485 302.674 268.503C303.098 269.52 303.718 270.444 304.499 271.22C305.28 271.997 306.207 272.61 307.226 273.026C308.244 273.442 309.335 273.652 310.435 273.644C309.331 273.636 308.236 273.848 307.214 274.267C306.192 274.686 305.264 275.304 304.482 276.086C303.7 276.867 303.081 277.797 302.66 278.82C302.239 279.844 302.024 280.941 302.029 282.048Z" fill="#231815"/>
<path d="M101.708 120.458C101.704 117.678 100.599 115.013 98.6371 113.049C96.6749 111.084 94.0151 109.981 91.2422 109.981C94.0165 109.977 96.6761 108.87 98.6379 106.903C100.6 104.936 101.704 102.269 101.708 99.4873C101.708 102.268 102.808 104.934 104.768 106.902C106.727 108.869 109.385 109.977 112.158 109.981C109.386 109.981 106.728 111.085 104.768 113.05C102.809 115.015 101.708 117.68 101.708 120.458Z" fill="#231815"/>
<path d="M519.23 199.733V220.247" stroke="#231815" stroke-width="1.81" stroke-miterlimit="10"/>
<path d="M529.46 209.99H509.001" stroke="#231815" stroke-width="1.81" stroke-miterlimit="10"/>
<path d="M300.205 120.458V140.972" stroke="#231815" stroke-width="1.81" stroke-miterlimit="10"/>
<path d="M310.435 130.715H289.976" stroke="#231815" stroke-width="1.81" stroke-miterlimit="10"/>
<path d="M249.278 147.806H109.157C105.039 147.806 101.7 151.153 101.7 155.282V241.118C101.7 245.248 105.039 248.595 109.157 248.595H249.278C253.397 248.595 256.735 245.248 256.735 241.118V155.282C256.735 151.153 253.397 147.806 249.278 147.806Z" stroke="#231815" stroke-width="2" stroke-linecap="round" stroke-linejoin="round"/>
<path d="M402.402 92.8887H266.052C260.893 92.8887 256.71 97.0825 256.71 102.256V238.969C256.71 244.142 260.893 248.336 266.052 248.336H402.402C407.562 248.336 411.745 244.142 411.745 238.969V102.256C411.745 97.0825 407.562 92.8887 402.402 92.8887Z" stroke="#231815" stroke-width="2" stroke-linecap="round" stroke-linejoin="round"/>
<path d="M556.23 248.336H532.159L552.298 265.29L506.166 248.336H422.172C419.39 248.336 416.722 247.228 414.755 245.255C412.789 243.283 411.684 240.608 411.684 237.819V63.2054C411.684 60.4162 412.789 57.7414 414.755 55.7692C416.722 53.797 419.39 52.689 422.172 52.689H556.23C559.012 52.689 561.68 53.797 563.646 55.7692C565.613 57.7414 566.718 60.4162 566.718 63.2054V237.819C566.718 240.608 565.613 243.283 563.646 245.255C561.68 247.228 559.012 248.336 556.23 248.336Z" stroke="#231815" stroke-width="2" stroke-linecap="round" stroke-linejoin="round"/>
<path d="M101.7 232.097C101.7 232.097 299.539 258.53 382.954 75.8224L354.607 65.6149L417.168 18.2974L436.826 95.2733L408.75 85.1399C408.75 85.1399 353.855 295.121 101.7 295.727V232.097Z" fill="#FAFDC8" stroke="#231815" stroke-width="2" stroke-linecap="round" stroke-linejoin="round"/>
<path d="M407.604 89.0454C327.122 256.714 163.916 270.703 101.7 269.554V295.727C333.309 295.122 398.471 117.925 407.604 89.0454Z" fill="#231815" stroke="#231815" stroke-width="2" stroke-linecap="round" stroke-linejoin="round"/>
<path d="M188.652 63.1064C193.759 63.0846 198.841 63.8132 203.737 65.269C196.131 60.2622 187.18 57.7068 178.084 57.9455C168.989 58.1842 160.183 61.2056 152.849 66.6045C145.514 72.0033 140.001 79.5216 137.049 88.1512C134.097 96.7807 133.847 106.109 136.333 114.885C136.524 101.094 142.118 87.9328 151.908 78.2442C161.698 68.5556 174.896 63.118 188.652 63.1064Z" fill="#FAFDC8" stroke="#231815" stroke-width="2" stroke-linecap="round" stroke-linejoin="round"/>
<path d="M179.224 147.46C188.846 147.486 198.219 144.392 205.944 138.64C213.669 132.888 219.333 124.786 222.09 115.542C224.847 106.299 224.549 96.4095 221.242 87.3494C217.934 78.2892 211.795 70.5439 203.738 65.2689C195.973 62.9346 187.774 62.4394 179.787 63.8223C171.799 65.2052 164.24 68.4285 157.706 73.2382C151.172 78.048 145.841 84.3128 142.132 91.5397C138.423 98.7666 136.438 106.758 136.333 114.885C138.974 124.254 144.591 132.503 152.332 138.382C160.072 144.261 169.513 147.448 179.224 147.46Z" fill="#231815" stroke="#231815" stroke-width="2" stroke-linecap="round" stroke-linejoin="round"/>
<path d="M163.966 82.2236C164.949 84.2343 166.475 85.9282 168.371 87.1128C170.266 88.2975 172.455 88.9255 174.688 88.9255C176.922 88.9255 179.111 88.2975 181.006 87.1128C182.902 85.9282 184.428 84.2343 185.411 82.2236" stroke="#FAFDC8" stroke-width="2" stroke-linecap="round" stroke-linejoin="round"/>
<path d="M191.894 82.2236C192.877 84.2343 194.403 85.9282 196.299 87.1128C198.194 88.2975 200.383 88.9255 202.616 88.9255C204.85 88.9255 207.038 88.2975 208.934 87.1128C210.829 85.9282 212.356 84.2343 213.339 82.2236" stroke="#FAFDC8" stroke-width="2" stroke-linecap="round" stroke-linejoin="round"/>
<path d="M181.122 95.4834C181.811 96.8975 182.882 98.0892 184.214 98.9228C185.545 99.7564 187.083 100.198 188.653 100.198C190.222 100.198 191.761 99.7564 193.092 98.9228C194.423 98.0892 195.494 96.8975 196.183 95.4834" stroke="#FAFDC8" stroke-width="2" stroke-linecap="round" stroke-linejoin="round"/>
<path d="M459.258 85.6963C460.45 88.1407 462.302 90.2005 464.604 91.6413C466.906 93.0821 469.565 93.846 472.279 93.846C474.993 93.846 477.652 93.0821 479.954 91.6413C482.256 90.2005 484.108 88.1407 485.3 85.6963" stroke="#231815" stroke-width="2" stroke-linecap="round" stroke-linejoin="round"/>
<path d="M493.188 85.6963C494.38 88.1407 496.233 90.2005 498.535 91.6413C500.837 93.0821 503.496 93.846 506.21 93.846C508.923 93.846 511.582 93.0821 513.884 91.6413C516.186 90.2005 518.039 88.1407 519.231 85.6963" stroke="#231815" stroke-width="2" stroke-linecap="round" stroke-linejoin="round"/>
<path d="M451.974 94.0132C458.728 102.206 472.926 107.866 489.244 107.866C505.562 107.866 519.773 102.206 526.527 94.0132" stroke="#231815" stroke-width="2" stroke-linecap="round" stroke-linejoin="round"/>
<path d="M513.955 297C518.23 297 521.695 293.525 521.695 289.239C521.695 284.953 518.23 281.479 513.955 281.479C509.68 281.479 506.215 284.953 506.215 289.239C506.215 293.525 509.68 297 513.955 297Z" fill="black"/>
<path d="M536.017 297C540.292 297 543.757 293.525 543.757 289.239C543.757 284.953 540.292 281.479 536.017 281.479C531.743 281.479 528.277 284.953 528.277 289.239C528.277 293.525 531.743 297 536.017 297Z" fill="black"/>
<path d="M558.079 297C562.354 297 565.819 293.525 565.819 289.239C565.819 284.953 562.354 281.479 558.079 281.479C553.804 281.479 550.339 284.953 550.339 289.239C550.339 293.525 553.804 297 558.079 297Z" fill="black"/>
</g>
<defs>
<filter id="filter0_d_12473_7496" x="-246.902" y="-27.9512" width="1105.8" height="497.805" filterUnits="userSpaceOnUse" color-interpolation-filters="sRGB">
<feFlood flood-opacity="0" result="BackgroundImageFix"/>
<feColorMatrix in="SourceAlpha" type="matrix" values="0 0 0 0 0 0 0 0 0 0 0 0 0 0 0 0 0 0 127 0" result="hardAlpha"/>
<feOffset dy="0.951167"/>
<feGaussianBlur stdDeviation="0.951167"/>
<feComposite in2="hardAlpha" operator="out"/>
<feColorMatrix type="matrix" values="0 0 0 0 0.0784314 0 0 0 0 0.0823529 0 0 0 0 0.101961 0 0 0 0.05 0"/>
<feBlend mode="normal" in2="BackgroundImageFix" result="effect1_dropShadow_12473_7496"/>
<feBlend mode="normal" in="SourceGraphic" in2="effect1_dropShadow_12473_7496" result="shape"/>
</filter>
</defs>
</svg>
